<svg xmlns="http://www.w3.org/2000/svg" xmlns:bx="https://boxy-svg.com" viewBox="0 0 295 295"><defs><linearGradient bx:pinned="true" id="a"><stop offset="0" stop-color="#0a0c1a"/><stop offset="1" stop-color="#333349"/></linearGradient><linearGradient id="b" x1="147.5" x2="147.5" y1="0" y2="295" gradientTransform="matrix(-1 -1 1 -1 105.4 399)" gradientUnits="userSpaceOnUse" href="#a"/><linearGradient id="c" x1="175.8" x2="117.2" y1="219.5" y2="-22.6" gradientTransform="translate(43.9 44.5)" gradientUnits="userSpaceOnUse"><stop stop-color="#0B46F9"/><stop offset="1" stop-color="#BBFBE0"/></linearGradient><linearGradient id="d" x1="175.8" x2="117.2" y1="219.5" y2="-22.6" gradientTransform="translate(43.9 44.5)" gradientUnits="userSpaceOnUse"><stop stop-color="#0B46F9"/><stop offset="1" stop-color="#BBFBE0"/></linearGradient><linearGradient id="e" x1="175.8" x2="117.2" y1="219.5" y2="-22.6" gradientUnits="userSpaceOnUse"><stop stop-color="#0B46F9"/><stop offset="1" stop-color="#BBFBE0"/></linearGradient><linearGradient id="f" x1="175.8" x2="117.2" y1="219.5" y2="-22.6" gradientUnits="userSpaceOnUse"><stop stop-color="#0B46F9"/><stop offset="1" stop-color="#BBFBE0"/></linearGradient><linearGradient id="h" x1="15.4" x2="116.8" y1="46.2" y2="121.9" gradientUnits="userSpaceOnUse"><stop offset=".1" stop-color="#8952FF" stop-opacity=".9"/><stop offset="1" stop-color="#DABDFF" stop-opacity="0"/></linearGradient></defs><path fill="url(#b)" d="M0 0h295v295H0z"/><path fill="url(#c)" d="M248.6 102 161 44.5v32.2l56.3 36.5-6.6 21h-49.7v26.6h49.7l6.6 21-56.3 36.5v32.2l87.7-57.3-14.3-45.6 14.3-45.6Z"/><path fill="url(#d)" d="M84.6 160.8h49.5v-26.6H84.4l-6.4-21 56-36.5V44.5L46.4 102l14.4 45.6-14.4 45.6 88 57.3v-32.2L78 181.8l6.6-21Z"/><mask id="g" width="203" height="206" x="2" y="0" maskUnits="userSpaceOnUse" style="mask-type:alpha"><path fill="url(#e)" d="M204.1 57.3 116.7 0v32l56 36.5-6.5 20.9h-49.5v26.5h49.5l6.6 21-56.1 36.4v32l87.4-57.1-14.3-45.4 14.3-45.5Z"/><path fill="url(#f)" d="M40.6 116h49.3V89.3H40.4L34 68.5l55.9-36.4V0L2.5 57.3l14.3 45.5-14.3 45.4L90 205.3v-32L34 136.8l6.6-20.9Z"/></mask><g mask="url(#g)" transform="translate(43.9 44.5)"><path fill="url(#h)" d="M2.6 0h200.2v205.3H2.6z"/></g></svg>