<svg width="23" height="20" viewBox="0 0 23 20" fill="none" xmlns="http://www.w3.org/2000/svg">
<path fill-rule="evenodd" clip-rule="evenodd" d="M22.9854 1.73548C22.667 5.24925 21.2881 13.7759 20.5867 17.7115C20.2897 19.3772 19.7049 19.9354 19.1392 19.9901C17.91 20.109 16.9762 19.1368 15.7851 18.3174C13.9215 17.0353 12.8686 16.2376 11.0596 14.9868C8.96855 13.5406 10.3243 12.7464 11.5153 11.4478C11.8272 11.1076 17.245 5.93585 17.35 5.46712C17.3633 5.40809 17.3757 5.18935 17.2516 5.0739C17.1275 4.95846 16.9447 4.99839 16.8132 5.02964C16.6263 5.0739 13.6486 7.13894 7.88168 11.2247C7.03634 11.8341 6.27122 12.1301 5.58469 12.1153C4.82868 12.098 3.37455 11.6666 2.29347 11.2977C0.96755 10.8454 -0.0862372 10.6058 0.00557628 9.83763C0.0527237 9.43747 0.577963 9.02863 1.58047 8.61024C7.75347 5.78742 11.8694 3.92724 13.929 3.02797C19.8099 0.461301 21.0317 0.0150479 21.8281 0.000291445C22.8259 -0.0181975 23.0666 0.84601 22.9854 1.73548Z" fill="white"/>
<path d="M22.9854 1.73548C22.667 5.24925 21.2881 13.7759 20.5867 17.7115C20.2897 19.3772 19.7049 19.9354 19.1392 19.9901C17.91 20.109 16.9762 19.1368 15.7851 18.3174C13.9215 17.0353 12.8686 16.2376 11.0596 14.9868C8.96855 13.5406 10.3243 12.7464 11.5153 11.4478C11.8272 11.1076 17.245 5.93585 17.35 5.46712C17.3633 5.40809 17.3757 5.18935 17.2516 5.0739C17.1275 4.95846 16.9447 4.99839 16.8132 5.02964C16.6263 5.0739 13.6486 7.13894 7.88168 11.2247C7.03634 11.8341 6.27122 12.1301 5.58469 12.1153C4.82868 12.098 3.37455 11.6666 2.29347 11.2977C0.96755 10.8454 -0.0862372 10.6058 0.00557628 9.83763C0.0527237 9.43747 0.577963 9.02863 1.58047 8.61024C7.75347 5.78742 11.8694 3.92724 13.929 3.02797C19.8099 0.461301 21.0317 0.0150479 21.8281 0.000291445C22.8259 -0.0181975 23.0666 0.84601 22.9854 1.73548Z" fill="white"/>
</svg>
